# xmcd CD database file
#
# Track frame offsets:
#	150
#	11337
#	23475
#	37172
#	50475
#	62152
#	80445
#	94070
#	105617
#	119487
#	135722
#	150945
#	163325
#	174905
#	188062
#	203005
#	214920
#	230320
#	241397
#	254550
#
# Disc length: 3524 seconds
#
# Revision: 0
# Processed by: cddbd v1.5.1PL0 Copyright (c) Steve Scherf et al.
# Submitted via: CDex 1.51
#
DISCID=090dc214
DTITLE=Various Country - Star Spangled Country
DYEAR=1900
DGENRE=Country
TTITLE0=Willie Nelson - On the Road again
TTITLE1=Dolly Parton - Jolene
TTITLE2=Kenny Price - The Happy Hour
TTITLE3=Joe Stampley - She hurt me back to drinkin'
TTITLE4=Dotty West - Here comes my baby
TTITLE5=Ronnie Milsap - Inside
TTITLE6=Mel Tillis - Charlie's Angel
TTITLE7=Carl Perkins - We're gonna have a party
TTITLE8=B.J Thomas - The best time to tell your lover you love her
TTITLE9=Nashville Super Pickers - Walkman
TTITLE10=Johnny Cash - Love that Never Failed
TTITLE11=Lorretta Lynn - Ain't it funny
TTITLE12=Johnny Paycheck - I don't need to know that right now
TTITLE13=Moe Brandy - Our love could burn Atlanta down again
TTITLE14=Anita Kerr Singers - Music
TTITLE15=Waylon Jennings - Gonna' write a letter
TTITLE16=Archie Campbell - Louisianna
TTITLE17=Hank Thompson - Drop me gently
TTITLE18=Porter Wagoner - I'm so lonesome I could cry
TTITLE19=Roy Clark - South
EXTD=
EXTT0=
EXTT1=
EXTT2=
EXTT3=
EXTT4=
EXTT5=
EXTT6=
EXTT7=
EXTT8=
EXTT9=
EXTT10=
EXTT11=
EXTT12=
EXTT13=
EXTT14=
EXTT15=
EXTT16=
EXTT17=
EXTT18=
EXTT19=
PLAYORDER=
